<svg width="200" height="130"  viewBox="0 0 727 127" fill="none" xmlns="http://www.w3.org/2000/svg">
<path d="M4.418 12.69H23.782V17.625H10.81V27.119H22.607V32.007H10.81V42.065H24.722V47H4.418V12.69ZM37.0158 47H30.7178V11.656L37.0158 10.81V47ZM55.1703 47.658C50.8463 47.658 47.76 46.4987 45.9113 44.18C44.0626 41.83 43.1383 38.2893 43.1383 33.558C43.1383 24.158 47.0863 19.458 54.9823 19.458C59.5256 19.458 62.6276 20.868 64.2883 23.688C65.7296 26.1007 66.4503 29.234 66.4503 33.088V34.78H49.2483C49.2796 37.7253 49.7653 39.809 50.7053 41.031C51.6453 42.2217 53.1963 42.817 55.3583 42.817C58.8363 42.817 60.685 41.5637 60.9043 39.057L66.0743 39.245C65.573 44.8537 61.9383 47.658 55.1703 47.658ZM58.7893 25.85C58.006 24.816 56.7213 24.299 54.9353 24.299C53.1493 24.299 51.8333 24.8003 50.9873 25.803C50.1726 26.7743 49.64 28.341 49.3893 30.503H60.2463C60.0583 28.4037 59.5726 26.8527 58.7893 25.85ZM84.2387 47H77.2357L68.1177 20.116H74.4627L80.7137 39.574L87.0117 20.116H93.3567L84.2387 47ZM107.406 19.458C114.237 19.458 117.652 22.5757 117.652 28.811V47H113.563L111.777 43.71C109.27 46.342 106.341 47.658 102.988 47.658C100.607 47.658 98.7893 47 97.536 45.684C96.314 44.3367 95.703 42.5507 95.703 40.326C95.703 38.07 96.408 36.2527 97.818 34.874C99.228 33.4953 101.86 32.524 105.714 31.96L111.354 31.114V28.858C111.354 25.8187 109.913 24.299 107.03 24.299C104.304 24.299 102.69 25.6777 102.189 28.435L97.301 26.978C98.4917 21.9647 101.86 19.458 107.406 19.458ZM105.009 43.052C107.14 43.052 109.255 42.0023 111.354 39.903V35.062L106.842 35.861C104.805 36.2057 103.458 36.754 102.8 37.506C102.142 38.258 101.813 39.104 101.813 40.044C101.813 40.984 102.095 41.7203 102.659 42.253C103.223 42.7857 104.006 43.052 105.009 43.052ZM122.008 24.205V20.116H126.332V15.228L132.63 13.63V20.116H137.753V24.205H132.63V39.386C132.63 40.7333 132.818 41.689 133.194 42.253C133.601 42.817 134.181 43.099 134.933 43.099C135.716 43.099 136.562 42.9737 137.471 42.723L138.27 46.624C136.421 47.3133 134.761 47.658 133.288 47.658C131.847 47.658 130.687 47.4857 129.81 47.141C128.933 46.7963 128.275 46.4047 127.836 45.966C127.397 45.496 127.068 44.8693 126.849 44.086C126.504 42.9893 126.332 41.6263 126.332 39.997V24.205H122.008ZM142.939 20.116H149.237V47H142.939V20.116ZM146.088 16.92C143.738 16.92 142.563 15.7137 142.563 13.301C142.563 10.857 143.738 9.635 146.088 9.635C148.501 9.635 149.707 10.857 149.707 13.301C149.707 15.7137 148.501 16.92 146.088 16.92ZM163.068 22.56C166.013 20.492 169.021 19.458 172.092 19.458C175.194 19.458 177.434 20.2257 178.813 21.761C180.192 23.265 180.881 25.3487 180.881 28.012V47H174.583V28.67C174.583 27.072 174.285 25.944 173.69 25.286C173.126 24.628 172.123 24.299 170.682 24.299C168.426 24.299 166.327 25.004 164.384 26.414V47H158.086V20.116H161.047L163.068 22.56ZM206.97 35.861C206.249 36.8637 205.153 37.6627 203.68 38.258C202.207 38.822 200.468 39.104 198.463 39.104C196.489 39.104 194.844 38.869 193.528 38.399L192.212 39.809C191.679 40.3417 191.413 40.8587 191.413 41.36C191.413 42.112 191.93 42.488 192.964 42.488H202.975C205.45 42.488 207.393 43.1617 208.803 44.509C210.244 45.8563 210.965 47.4387 210.965 49.256C210.965 51.0733 210.589 52.5147 209.837 53.58C209.085 54.6453 208.004 55.4287 206.594 55.93C204.213 56.776 201.158 57.199 197.429 57.199C193.732 57.199 190.88 56.7447 188.875 55.836C186.87 54.9587 185.867 53.439 185.867 51.277C185.867 50.243 186.165 49.303 186.76 48.457C187.355 47.6423 188.092 47.0157 188.969 46.577C187.058 45.9817 186.102 44.5873 186.102 42.394C186.102 40.9527 186.666 39.621 187.794 38.399L189.956 36.143C188.483 34.451 187.747 32.1637 187.747 29.281C187.747 26.743 188.436 24.5497 189.815 22.701C191.382 20.539 194.233 19.458 198.369 19.458C200.155 19.458 201.706 19.6773 203.022 20.116H210.871V23.829H207.769C208.615 25.3643 209.038 26.978 209.038 28.67C209.038 30.3307 208.881 31.6937 208.568 32.759C208.255 33.8243 207.722 34.8583 206.97 35.861ZM198.369 23.641C195.298 23.641 193.763 25.521 193.763 29.281C193.763 33.041 195.298 34.921 198.369 34.921C201.471 34.921 203.022 33.041 203.022 29.281C203.022 25.521 201.471 23.641 198.369 23.641ZM191.601 49.867C191.601 50.995 192.102 51.7157 193.105 52.029C194.139 52.3423 195.831 52.499 198.181 52.499C200.531 52.499 202.192 52.311 203.163 51.935C204.166 51.5903 204.667 50.8227 204.667 49.632C204.667 47.8773 203.445 47 201.001 47H192.964C192.055 47.8147 191.601 48.7703 191.601 49.867ZM241.633 47H235.241V35.062L224.666 12.69H231.058L238.437 29.093L245.816 12.69H252.208L241.633 35.062V47ZM258.349 40.467C259.163 42.0337 260.73 42.817 263.049 42.817C265.367 42.817 266.934 42.0337 267.749 40.467C268.563 38.9003 268.971 36.5973 268.971 33.558C268.971 30.5187 268.563 28.2157 267.749 26.649C266.934 25.0823 265.367 24.299 263.049 24.299C260.73 24.299 259.163 25.0823 258.349 26.649C257.534 28.2157 257.127 30.5187 257.127 33.558C257.127 36.5973 257.534 38.9003 258.349 40.467ZM275.269 33.558C275.269 42.958 271.195 47.658 263.049 47.658C254.902 47.658 250.829 42.958 250.829 33.558C250.829 24.158 254.902 19.458 263.049 19.458C271.195 19.458 275.269 24.158 275.269 33.558ZM289.171 47.658C283.657 47.658 280.899 44.8067 280.899 39.104V20.116H287.197V38.07C287.197 39.6993 287.511 40.9057 288.137 41.689C288.795 42.441 289.876 42.817 291.38 42.817C293.511 42.817 295.532 41.8143 297.443 39.809V20.116H303.741V47H299.652L297.866 43.757C295.422 46.3577 292.524 47.658 289.171 47.658ZM318.878 47H312.58V20.116H315.541L318.032 24.299C320.194 21.2283 323.249 19.6147 327.197 19.458V24.863C323.5 24.957 320.727 26.085 318.878 28.247V47Z" fill="#09427D"/>
<path d="M356.507 34.827H351.055V47H344.663V12.69H356.507C360.643 12.69 363.557 13.818 365.249 16.074C366.722 18.1107 367.458 20.68 367.458 23.782C367.458 26.8527 366.722 29.3907 365.249 31.396C363.557 33.6833 360.643 34.827 356.507 34.827ZM351.055 29.892H355.52C359.217 29.892 361.066 27.8553 361.066 23.782C361.066 19.6773 359.217 17.625 355.52 17.625H351.055V29.892ZM379.005 21.761C381.574 20.2257 384.269 19.458 387.089 19.458C389.94 19.458 392.055 20.2257 393.434 21.761C394.813 23.265 395.502 25.3487 395.502 28.012V47H389.204V28.67C389.204 27.072 388.906 25.944 388.311 25.286C387.747 24.628 386.744 24.299 385.303 24.299C383.047 24.299 380.948 25.004 379.005 26.414V47H372.707V11.656L379.005 11.186V21.761ZM413.319 19.458C420.15 19.458 423.565 22.5757 423.565 28.811V47H419.476L417.69 43.71C415.183 46.342 412.254 47.658 408.901 47.658C406.52 47.658 404.702 47 403.449 45.684C402.227 44.3367 401.616 42.5507 401.616 40.326C401.616 38.07 402.321 36.2527 403.731 34.874C405.141 33.4953 407.773 32.524 411.627 31.96L417.267 31.114V28.858C417.267 25.8187 415.826 24.299 412.943 24.299C410.217 24.299 408.603 25.6777 408.102 28.435L403.214 26.978C404.405 21.9647 407.773 19.458 413.319 19.458ZM410.922 43.052C413.053 43.052 415.168 42.0023 417.267 39.903V35.062L412.755 35.861C410.718 36.2057 409.371 36.754 408.713 37.506C408.055 38.258 407.726 39.104 407.726 40.044C407.726 40.984 408.008 41.7203 408.572 42.253C409.136 42.7857 409.919 43.052 410.922 43.052ZM438.214 47H431.916V20.116H434.877L437.368 24.299C439.53 21.2283 442.585 19.6147 446.533 19.458V24.863C442.836 24.957 440.063 26.085 438.214 28.247V47ZM464.075 19.458C467.835 19.458 470.467 20.539 471.971 22.701C474.665 20.539 477.532 19.458 480.572 19.458C483.642 19.458 485.914 20.2257 487.387 21.761C488.859 23.265 489.596 25.3487 489.596 28.012V47H483.298V29.046C483.298 27.4167 483 26.226 482.405 25.474C481.809 24.6907 480.76 24.299 479.256 24.299C477.125 24.299 475.167 25.0353 473.381 26.508C473.443 27.1347 473.475 27.636 473.475 28.012V47H467.177V29.046C467.177 27.4167 466.863 26.226 466.237 25.474C465.61 24.6907 464.404 24.299 462.618 24.299C460.863 24.299 459.108 24.9257 457.354 26.179V47H451.056V20.116H454.393L456.038 22.325C458.576 20.4137 461.255 19.458 464.075 19.458ZM507.411 19.458C514.242 19.458 517.657 22.5757 517.657 28.811V47H513.568L511.782 43.71C509.275 46.342 506.346 47.658 502.993 47.658C500.612 47.658 498.794 47 497.541 45.684C496.319 44.3367 495.708 42.5507 495.708 40.326C495.708 38.07 496.413 36.2527 497.823 34.874C499.233 33.4953 501.865 32.524 505.719 31.96L511.359 31.114V28.858C511.359 25.8187 509.918 24.299 507.035 24.299C504.309 24.299 502.695 25.6777 502.194 28.435L497.306 26.978C498.497 21.9647 501.865 19.458 507.411 19.458ZM505.014 43.052C507.145 43.052 509.26 42.0023 511.359 39.903V35.062L506.847 35.861C504.81 36.2057 503.463 36.754 502.805 37.506C502.147 38.258 501.818 39.104 501.818 40.044C501.818 40.984 502.1 41.7203 502.664 42.253C503.228 42.7857 504.011 43.052 505.014 43.052ZM530.755 26.555C529.972 28.059 529.58 30.3933 529.58 33.558C529.58 36.7227 529.972 39.057 530.755 40.561C531.57 42.065 532.964 42.817 534.938 42.817C536.943 42.817 538.369 42.4097 539.215 41.595C540.092 40.7803 540.562 39.4957 540.625 37.741L545.56 37.976C545.372 41.172 544.432 43.5847 542.74 45.214C541.079 46.8433 538.338 47.658 534.515 47.658C530.034 47.658 526.979 46.201 525.35 43.287C524.567 41.877 524.018 40.4043 523.705 38.869C523.423 37.3337 523.282 35.5633 523.282 33.558C523.282 31.5213 523.423 29.7353 523.705 28.2C524.018 26.6333 524.567 25.1607 525.35 23.782C526.948 20.8993 530.003 19.458 534.515 19.458C538.306 19.458 541.032 20.2413 542.693 21.808C544.354 23.3433 545.294 25.6463 545.513 28.717L540.625 29.375C540.562 27.6203 540.092 26.3357 539.215 25.521C538.369 24.7063 536.943 24.299 534.938 24.299C532.964 24.299 531.57 25.051 530.755 26.555ZM560.512 47.658C556.188 47.658 553.102 46.4987 551.253 44.18C549.404 41.83 548.48 38.2893 548.48 33.558C548.48 24.158 552.428 19.458 560.324 19.458C564.867 19.458 567.969 20.868 569.63 23.688C571.071 26.1007 571.792 29.234 571.792 33.088V34.78H554.59C554.621 37.7253 555.107 39.809 556.047 41.031C556.987 42.2217 558.538 42.817 560.7 42.817C564.178 42.817 566.027 41.5637 566.246 39.057L571.416 39.245C570.915 44.8537 567.28 47.658 560.512 47.658ZM564.131 25.85C563.348 24.816 562.063 24.299 560.277 24.299C558.491 24.299 557.175 24.8003 556.329 25.803C555.514 26.7743 554.982 28.341 554.731 30.503H565.588C565.4 28.4037 564.914 26.8527 564.131 25.85ZM585.491 47.658C579.977 47.658 577.219 44.8067 577.219 39.104V20.116H583.517V38.07C583.517 39.6993 583.831 40.9057 584.457 41.689C585.115 42.441 586.196 42.817 587.7 42.817C589.831 42.817 591.852 41.8143 593.763 39.809V20.116H600.061V47H595.972L594.186 43.757C591.742 46.3577 588.844 47.658 585.491 47.658ZM604.905 24.205V20.116H609.229V15.228L615.527 13.63V20.116H620.65V24.205H615.527V39.386C615.527 40.7333 615.715 41.689 616.091 42.253C616.499 42.817 617.078 43.099 617.83 43.099C618.614 43.099 619.46 42.9737 620.368 42.723L621.167 46.624C619.319 47.3133 617.658 47.658 616.185 47.658C614.744 47.658 613.585 47.4857 612.707 47.141C611.83 46.7963 611.172 46.4047 610.733 45.966C610.295 45.496 609.966 44.8693 609.746 44.086C609.402 42.9893 609.229 41.6263 609.229 39.997V24.205H604.905ZM625.837 20.116H632.135V47H625.837V20.116ZM628.986 16.92C626.636 16.92 625.461 15.7137 625.461 13.301C625.461 10.857 626.636 9.635 628.986 9.635C631.399 9.635 632.605 10.857 632.605 13.301C632.605 15.7137 631.399 16.92 628.986 16.92ZM645.73 26.555C644.947 28.059 644.555 30.3933 644.555 33.558C644.555 36.7227 644.947 39.057 645.73 40.561C646.545 42.065 647.939 42.817 649.913 42.817C651.919 42.817 653.344 42.4097 654.19 41.595C655.068 40.7803 655.538 39.4957 655.6 37.741L660.535 37.976C660.347 41.172 659.407 43.5847 657.715 45.214C656.055 46.8433 653.313 47.658 649.49 47.658C645.01 47.658 641.955 46.201 640.325 43.287C639.542 41.877 638.994 40.4043 638.68 38.869C638.398 37.3337 638.257 35.5633 638.257 33.558C638.257 31.5213 638.398 29.7353 638.68 28.2C638.994 26.6333 639.542 25.1607 640.325 23.782C641.923 20.8993 644.978 19.458 649.49 19.458C653.282 19.458 656.008 20.2413 657.668 21.808C659.329 23.3433 660.269 25.6463 660.488 28.717L655.6 29.375C655.538 27.6203 655.068 26.3357 654.19 25.521C653.344 24.7063 651.919 24.299 649.913 24.299C647.939 24.299 646.545 25.051 645.73 26.555ZM675.629 19.458C682.459 19.458 685.875 22.5757 685.875 28.811V47H681.786L680 43.71C677.493 46.342 674.563 47.658 671.211 47.658C668.829 47.658 667.012 47 665.759 45.684C664.537 44.3367 663.926 42.5507 663.926 40.326C663.926 38.07 664.631 36.2527 666.041 34.874C667.451 33.4953 670.083 32.524 673.937 31.96L679.577 31.114V28.858C679.577 25.8187 678.135 24.299 675.253 24.299C672.527 24.299 670.913 25.6777 670.412 28.435L665.524 26.978C666.714 21.9647 670.083 19.458 675.629 19.458ZM673.232 43.052C675.362 43.052 677.477 42.0023 679.577 39.903V35.062L675.065 35.861C673.028 36.2057 671.681 36.754 671.023 37.506C670.365 38.258 670.036 39.104 670.036 40.044C670.036 40.984 670.318 41.7203 670.882 42.253C671.446 42.7857 672.229 43.052 673.232 43.052ZM700.524 47H694.226V11.656L700.524 10.81V47Z" fill="url(#paint0_linear_14_12)"/>
<path d="M17.343 88.495C20.539 89.3097 22.8263 90.469 24.205 91.973C25.5837 93.477 26.273 95.733 26.273 98.741C26.273 101.749 25.239 104.162 23.171 105.979C21.103 107.765 18.0637 108.658 14.053 108.658C10.0423 108.658 7.144 107.812 5.358 106.12C3.572 104.397 2.47533 101.906 2.068 98.647L7.191 97.848C7.379 99.6967 8.00567 101.138 9.071 102.172C10.1677 103.175 11.6873 103.676 13.63 103.676C17.7973 103.676 19.881 102.094 19.881 98.929C19.881 97.5817 19.4893 96.5633 18.706 95.874C17.9227 95.1847 16.4187 94.558 14.194 93.994L11.515 93.336C8.38167 92.5527 6.14133 91.3933 4.794 89.858C3.44667 88.3227 2.773 86.0353 2.773 82.996C2.773 79.9253 3.76 77.497 5.734 75.711C7.708 73.925 10.622 73.032 14.476 73.032C18.3613 73.032 21.15 73.8937 22.842 75.617C24.5653 77.309 25.6307 79.7843 26.038 83.043L20.962 83.842C20.5547 79.9567 18.5493 78.014 14.946 78.014C12.972 78.014 11.515 78.4527 10.575 79.33C9.635 80.176 9.165 81.304 9.165 82.714C9.165 84.124 9.52533 85.1737 10.246 85.863C10.9667 86.5523 12.3453 87.1633 14.382 87.696L17.343 88.495ZM28.7423 85.205V81.116H33.0663V76.228L39.3643 74.63V81.116H44.4873V85.205H39.3643V100.386C39.3643 101.733 39.5523 102.689 39.9283 103.253C40.3357 103.817 40.9153 104.099 41.6673 104.099C42.4507 104.099 43.2967 103.974 44.2053 103.723L45.0043 107.624C43.1557 108.313 41.495 108.658 40.0223 108.658C38.581 108.658 37.4217 108.486 36.5443 108.141C35.667 107.796 35.009 107.405 34.5703 106.966C34.1317 106.496 33.8027 105.869 33.5833 105.086C33.2387 103.989 33.0663 102.626 33.0663 100.997V85.205H28.7423ZM59.1209 80.458C65.9515 80.458 69.3669 83.5757 69.3669 89.811V108H65.2779L63.4919 104.71C60.9852 107.342 58.0555 108.658 54.7029 108.658C52.3215 108.658 50.5042 108 49.2509 106.684C48.0289 105.337 47.4179 103.551 47.4179 101.326C47.4179 99.07 48.1229 97.2527 49.5329 95.874C50.9429 94.4953 53.5749 93.524 57.4289 92.96L63.0689 92.114V89.858C63.0689 86.8187 61.6275 85.299 58.7449 85.299C56.0189 85.299 54.4052 86.6777 53.9039 89.435L49.0159 87.978C50.2065 82.9647 53.5749 80.458 59.1209 80.458ZM56.7239 104.052C58.8545 104.052 60.9695 103.002 63.0689 100.903V96.062L58.5569 96.861C56.5202 97.2057 55.1729 97.754 54.5149 98.506C53.8569 99.258 53.5279 100.104 53.5279 101.044C53.5279 101.984 53.8099 102.72 54.3739 103.253C54.9379 103.786 55.7212 104.052 56.7239 104.052ZM82.6998 83.56C85.6451 81.492 88.6531 80.458 91.7238 80.458C94.8258 80.458 97.0661 81.2257 98.4448 82.761C99.8235 84.265 100.513 86.3487 100.513 89.012V108H94.2148V89.67C94.2148 88.072 93.9171 86.944 93.3218 86.286C92.7578 85.628 91.7551 85.299 90.3138 85.299C88.0578 85.299 85.9585 86.004 84.0158 87.414V108H77.7178V81.116H80.6788L82.6998 83.56ZM115.228 108.658C109.181 108.658 106.157 103.958 106.157 94.558C106.157 85.158 109.823 80.458 117.155 80.458C119.223 80.458 121.26 80.834 123.265 81.586V72.656L129.563 72.186V108H125.474L123.735 104.663C121.134 107.326 118.299 108.658 115.228 108.658ZM117.719 103.817C119.662 103.817 121.51 102.814 123.265 100.809V86.239C121.73 85.6123 120.226 85.299 118.753 85.299C116.497 85.299 114.883 86.0823 113.912 87.649C112.941 89.2157 112.455 91.5187 112.455 94.558C112.455 100.731 114.21 103.817 117.719 103.817ZM147.843 80.458C154.673 80.458 158.089 83.5757 158.089 89.811V108H154L152.214 104.71C149.707 107.342 146.777 108.658 143.425 108.658C141.043 108.658 139.226 108 137.973 106.684C136.751 105.337 136.14 103.551 136.14 101.326C136.14 99.07 136.845 97.2527 138.255 95.874C139.665 94.4953 142.297 93.524 146.151 92.96L151.791 92.114V89.858C151.791 86.8187 150.349 85.299 147.467 85.299C144.741 85.299 143.127 86.6777 142.626 89.435L137.738 87.978C138.928 82.9647 142.297 80.458 147.843 80.458ZM145.446 104.052C147.576 104.052 149.691 103.002 151.791 100.903V96.062L147.279 96.861C145.242 97.2057 143.895 97.754 143.237 98.506C142.579 99.258 142.25 100.104 142.25 101.044C142.25 101.984 142.532 102.72 143.096 103.253C143.66 103.786 144.443 104.052 145.446 104.052ZM172.737 108H166.439V81.116H169.4L171.891 85.299C174.053 82.2283 177.108 80.6147 181.056 80.458V85.863C177.359 85.957 174.586 87.085 172.737 89.247V108ZM191.924 108.658C185.877 108.658 182.853 103.958 182.853 94.558C182.853 85.158 186.519 80.458 193.851 80.458C195.919 80.458 197.956 80.834 199.961 81.586V72.656L206.259 72.186V108H202.17L200.431 104.663C197.83 107.326 194.995 108.658 191.924 108.658ZM194.415 103.817C196.358 103.817 198.206 102.814 199.961 100.809V86.239C198.426 85.6123 196.922 85.299 195.449 85.299C193.193 85.299 191.579 86.0823 190.608 87.649C189.637 89.2157 189.151 91.5187 189.151 94.558C189.151 100.731 190.906 103.817 194.415 103.817ZM234.315 100.48C234.315 105.838 230.555 108.517 223.035 108.517C219.745 108.517 217.301 107.812 215.703 106.402C214.105 104.961 213.102 102.877 212.695 100.151L217.583 99.399C217.927 102.407 219.792 103.911 223.176 103.911C226.591 103.911 228.299 102.846 228.299 100.715C228.299 99.8377 227.954 99.1797 227.265 98.741C226.607 98.3023 225.259 97.848 223.223 97.378L221.061 96.861C218.272 96.203 216.267 95.2473 215.045 93.994C213.854 92.7093 213.259 90.8607 213.259 88.448C213.259 83.1213 216.893 80.458 224.163 80.458C227.296 80.458 229.63 81.1787 231.166 82.62C232.732 84.03 233.704 86.098 234.08 88.824L229.192 89.529C228.847 86.5523 227.108 85.064 223.975 85.064C220.873 85.064 219.322 86.1293 219.322 88.26C219.322 89.1373 219.619 89.811 220.215 90.281C220.841 90.7197 222.095 91.1583 223.975 91.597L226.419 92.208C229.207 92.8973 231.213 93.8687 232.435 95.122C233.688 96.344 234.315 98.13 234.315 100.48Z" fill="url(#paint1_linear_14_12)"/>
<defs>
<linearGradient id="paint0_linear_14_12" x1="237.55" y1="87" x2="237.237" y2="115.005" gradientUnits="userSpaceOnUse">
<stop stop-color="#09427D"/>
<stop offset="1" stop-color="#640354"/>
</linearGradient>
<linearGradient id="paint1_linear_14_12" x1="237.55" y1="87" x2="237.237" y2="115.005" gradientUnits="userSpaceOnUse">
<stop stop-color="#8C0075" stop-opacity="0.9"/>
<stop offset="1" stop-color="#640354"/>
</linearGradient>
</defs>
</svg>
