<svg  width="200" height="130" viewBox="0 0 677 127" fill="none" xmlns="http://www.w3.org/2000/svg">
<path d="M0.906 17.531V12.69H25.299V17.531H16.322V47H9.93V17.531H0.906ZM35.9045 47H29.6065V20.116H32.5675L35.0585 24.299C37.2205 21.2283 40.2755 19.6147 44.2235 19.458V24.863C40.5261 24.957 37.7531 26.085 35.9045 28.247V47ZM56.5481 47.658C51.0335 47.658 48.2761 44.8067 48.2761 39.104V20.116H54.5741V38.07C54.5741 39.6993 54.8875 40.9057 55.5141 41.689C56.1721 42.441 57.2531 42.817 58.7571 42.817C60.8878 42.817 62.9088 41.8143 64.8201 39.809V20.116H71.1181V47H67.0291L65.2431 43.757C62.7991 46.3577 59.9008 47.658 56.5481 47.658ZM99.1801 39.48C99.1801 44.838 95.4201 47.517 87.9001 47.517C84.6101 47.517 82.1661 46.812 80.5681 45.402C78.9701 43.9607 77.9674 41.877 77.5601 39.151L82.4481 38.399C82.7927 41.407 84.6571 42.911 88.0411 42.911C91.4564 42.911 93.1641 41.8457 93.1641 39.715C93.1641 38.8377 92.8194 38.1797 92.1301 37.741C91.4721 37.3023 90.1247 36.848 88.0881 36.378L85.9261 35.861C83.1374 35.203 81.1321 34.2473 79.9101 32.994C78.7194 31.7093 78.1241 29.8607 78.1241 27.448C78.1241 22.1213 81.7587 19.458 89.0281 19.458C92.1614 19.458 94.4957 20.1787 96.0311 21.62C97.5977 23.03 98.5691 25.098 98.9451 27.824L94.0571 28.529C93.7124 25.5523 91.9734 24.064 88.8401 24.064C85.7381 24.064 84.1871 25.1293 84.1871 27.26C84.1871 28.1373 84.4847 28.811 85.0801 29.281C85.7067 29.7197 86.9601 30.1583 88.8401 30.597L91.2841 31.208C94.0727 31.8973 96.0781 32.8687 97.3001 34.122C98.5534 35.344 99.1801 37.13 99.1801 39.48ZM101.619 24.205V20.116H105.943V15.228L112.241 13.63V20.116H117.364V24.205H112.241V39.386C112.241 40.7333 112.429 41.689 112.805 42.253C113.213 42.817 113.792 43.099 114.544 43.099C115.328 43.099 116.174 42.9737 117.082 42.723L117.881 46.624C116.033 47.3133 114.372 47.658 112.899 47.658C111.458 47.658 110.299 47.4857 109.421 47.141C108.544 46.7963 107.886 46.4047 107.447 45.966C107.009 45.496 106.68 44.8693 106.46 44.086C106.116 42.9893 105.943 41.6263 105.943 39.997V24.205H101.619ZM131.857 47.658C127.533 47.658 124.446 46.4987 122.598 44.18C120.749 41.83 119.825 38.2893 119.825 33.558C119.825 24.158 123.773 19.458 131.669 19.458C136.212 19.458 139.314 20.868 140.975 23.688C142.416 26.1007 143.137 29.234 143.137 33.088V34.78H125.935C125.966 37.7253 126.452 39.809 127.392 41.031C128.332 42.2217 129.883 42.817 132.045 42.817C135.523 42.817 137.371 41.5637 137.591 39.057L142.761 39.245C142.259 44.8537 138.625 47.658 131.857 47.658ZM135.476 25.85C134.692 24.816 133.408 24.299 131.622 24.299C129.836 24.299 128.52 24.8003 127.674 25.803C126.859 26.7743 126.326 28.341 126.076 30.503H136.933C136.745 28.4037 136.259 26.8527 135.476 25.85ZM155.379 47.658C149.332 47.658 146.308 42.958 146.308 33.558C146.308 24.158 149.974 19.458 157.306 19.458C159.374 19.458 161.411 19.834 163.416 20.586V11.656L169.714 11.186V47H165.625L163.886 43.663C161.286 46.3263 158.45 47.658 155.379 47.658ZM157.87 42.817C159.813 42.817 161.662 41.8143 163.416 39.809V25.239C161.881 24.6123 160.377 24.299 158.904 24.299C156.648 24.299 155.035 25.0823 154.063 26.649C153.092 28.2157 152.606 30.5187 152.606 33.558C152.606 39.7307 154.361 42.817 157.87 42.817ZM214.896 12.69H223.826L224.719 47H218.421L217.904 20.586L210.243 42.911H204.697L197.788 21.338L197.318 47H191.02L191.866 12.69H200.843L207.564 34.357L214.896 12.69ZM242.521 19.458C249.352 19.458 252.767 22.5757 252.767 28.811V47H248.678L246.892 43.71C244.386 46.342 241.456 47.658 238.103 47.658C235.722 47.658 233.905 47 232.651 45.684C231.429 44.3367 230.818 42.5507 230.818 40.326C230.818 38.07 231.523 36.2527 232.933 34.874C234.343 33.4953 236.975 32.524 240.829 31.96L246.469 31.114V28.858C246.469 25.8187 245.028 24.299 242.145 24.299C239.419 24.299 237.806 25.6777 237.304 28.435L232.416 26.978C233.607 21.9647 236.975 19.458 242.521 19.458ZM240.124 43.052C242.255 43.052 244.37 42.0023 246.469 39.903V35.062L241.957 35.861C239.921 36.2057 238.573 36.754 237.915 37.506C237.257 38.258 236.928 39.104 236.928 40.044C236.928 40.984 237.21 41.7203 237.774 42.253C238.338 42.7857 239.122 43.052 240.124 43.052ZM266.1 22.56C269.046 20.492 272.054 19.458 275.124 19.458C278.226 19.458 280.467 20.2257 281.845 21.761C283.224 23.265 283.913 25.3487 283.913 28.012V47H277.615V28.67C277.615 27.072 277.318 25.944 276.722 25.286C276.158 24.628 275.156 24.299 273.714 24.299C271.458 24.299 269.359 25.004 267.416 26.414V47H261.118V20.116H264.079L266.1 22.56ZM300.085 47.658C294.571 47.658 291.813 44.8067 291.813 39.104V20.116H298.111V38.07C298.111 39.6993 298.425 40.9057 299.051 41.689C299.709 42.441 300.79 42.817 302.294 42.817C304.425 42.817 306.446 41.8143 308.357 39.809V20.116H314.655V47H310.566L308.78 43.757C306.336 46.3577 303.438 47.658 300.085 47.658ZM332.847 15.51C331.187 15.51 330.356 16.4343 330.356 18.283V20.116H335.432V24.205H330.356V47H324.058V24.205H321.144V20.116H324.058V18.283C324.058 13.1443 326.769 10.575 332.189 10.575C334.226 10.575 336.012 10.857 337.547 11.421L335.996 16.168C334.931 15.7293 333.881 15.51 332.847 15.51ZM349.419 19.458C356.249 19.458 359.665 22.5757 359.665 28.811V47H355.576L353.79 43.71C351.283 46.342 348.353 47.658 345.001 47.658C342.619 47.658 340.802 47 339.549 45.684C338.327 44.3367 337.716 42.5507 337.716 40.326C337.716 38.07 338.421 36.2527 339.831 34.874C341.241 33.4953 343.873 32.524 347.727 31.96L353.367 31.114V28.858C353.367 25.8187 351.925 24.299 349.043 24.299C346.317 24.299 344.703 25.6777 344.202 28.435L339.314 26.978C340.504 21.9647 343.873 19.458 349.419 19.458ZM347.022 43.052C349.152 43.052 351.267 42.0023 353.367 39.903V35.062L348.855 35.861C346.818 36.2057 345.471 36.754 344.813 37.506C344.155 38.258 343.826 39.104 343.826 40.044C343.826 40.984 344.108 41.7203 344.672 42.253C345.236 42.7857 346.019 43.052 347.022 43.052ZM372.763 26.555C371.979 28.059 371.588 30.3933 371.588 33.558C371.588 36.7227 371.979 39.057 372.763 40.561C373.577 42.065 374.972 42.817 376.946 42.817C378.951 42.817 380.377 42.4097 381.223 41.595C382.1 40.7803 382.57 39.4957 382.633 37.741L387.568 37.976C387.38 41.172 386.44 43.5847 384.748 45.214C383.087 46.8433 380.345 47.658 376.523 47.658C372.042 47.658 368.987 46.201 367.358 43.287C366.574 41.877 366.026 40.4043 365.713 38.869C365.431 37.3337 365.29 35.5633 365.29 33.558C365.29 31.5213 365.431 29.7353 365.713 28.2C366.026 26.6333 366.574 25.1607 367.358 23.782C368.956 20.8993 372.011 19.458 376.523 19.458C380.314 19.458 383.04 20.2413 384.701 21.808C386.361 23.3433 387.301 25.6463 387.521 28.717L382.633 29.375C382.57 27.6203 382.1 26.3357 381.223 25.521C380.377 24.7063 378.951 24.299 376.946 24.299C374.972 24.299 373.577 25.051 372.763 26.555ZM389.219 24.205V20.116H393.543V15.228L399.841 13.63V20.116H404.964V24.205H399.841V39.386C399.841 40.7333 400.029 41.689 400.405 42.253C400.812 42.817 401.392 43.099 402.144 43.099C402.927 43.099 403.773 42.9737 404.682 42.723L405.481 46.624C403.632 47.3133 401.972 47.658 400.499 47.658C399.058 47.658 397.898 47.4857 397.021 47.141C396.144 46.7963 395.486 46.4047 395.047 45.966C394.608 45.496 394.279 44.8693 394.06 44.086C393.715 42.9893 393.543 41.6263 393.543 39.997V24.205H389.219ZM417.952 47.658C412.438 47.658 409.68 44.8067 409.68 39.104V20.116H415.978V38.07C415.978 39.6993 416.292 40.9057 416.918 41.689C417.576 42.441 418.657 42.817 420.161 42.817C422.292 42.817 424.313 41.8143 426.224 39.809V20.116H432.522V47H428.433L426.647 43.757C424.203 46.3577 421.305 47.658 417.952 47.658ZM447.659 47H441.361V20.116H444.322L446.813 24.299C448.975 21.2283 452.03 19.6147 455.978 19.458V24.863C452.281 24.957 449.508 26.085 447.659 28.247V47ZM469.807 47.658C465.483 47.658 462.397 46.4987 460.548 44.18C458.699 41.83 457.775 38.2893 457.775 33.558C457.775 24.158 461.723 19.458 469.619 19.458C474.162 19.458 477.264 20.868 478.925 23.688C480.366 26.1007 481.087 29.234 481.087 33.088V34.78H463.885C463.916 37.7253 464.402 39.809 465.342 41.031C466.282 42.2217 467.833 42.817 469.995 42.817C473.473 42.817 475.322 41.5637 475.541 39.057L480.711 39.245C480.21 44.8537 476.575 47.658 469.807 47.658ZM473.426 25.85C472.643 24.816 471.358 24.299 469.572 24.299C467.786 24.299 466.47 24.8003 465.624 25.803C464.809 26.7743 464.277 28.341 464.026 30.503H474.883C474.695 28.4037 474.209 26.8527 473.426 25.85ZM493.282 47H486.984V20.116H489.945L492.436 24.299C494.598 21.2283 497.653 19.6147 501.601 19.458V24.863C497.904 24.957 495.131 26.085 493.282 28.247V47ZM542.614 42.441C541.612 44.133 540.155 45.4333 538.243 46.342C536.363 47.2193 534.17 47.658 531.663 47.658C529.188 47.658 527.12 47.3603 525.459 46.765C523.799 46.1383 522.451 45.3237 521.417 44.321C520.383 43.287 519.553 41.9867 518.926 40.42C517.83 37.6627 517.281 34.1377 517.281 29.845C517.281 27.1817 517.485 24.8473 517.892 22.842C518.3 20.8367 519.005 18.988 520.007 17.296C522.013 13.7867 525.773 12.032 531.287 12.032C537.554 12.032 541.69 14.4603 543.695 19.317C544.792 22.043 545.34 25.5523 545.34 29.845C545.34 32.5397 545.137 34.8897 544.729 36.895C544.322 38.9003 543.617 40.749 542.614 42.441ZM531.287 42.488C534.139 42.488 536.128 41.3757 537.256 39.151C538.384 36.9263 538.948 33.8243 538.948 29.845C538.948 25.8657 538.384 22.7637 537.256 20.539C536.128 18.3143 534.139 17.202 531.287 17.202C528.279 17.202 526.227 18.424 525.13 20.868C524.159 23.0927 523.673 26.085 523.673 29.845C523.673 36.1117 524.942 40.0127 527.48 41.548C528.514 42.1747 529.783 42.488 531.287 42.488ZM561.743 15.51C560.082 15.51 559.252 16.4343 559.252 18.283V20.116H564.328V24.205H559.252V47H552.954V24.205H550.04V20.116H552.954V18.283C552.954 13.1443 555.664 10.575 561.085 10.575C563.121 10.575 564.907 10.857 566.443 11.421L564.892 16.168C563.826 15.7293 562.777 15.51 561.743 15.51ZM577.299 17.531V12.69H601.692V17.531H592.715V47H586.323V17.531H577.299ZM612.297 21.761C614.866 20.2257 617.561 19.458 620.381 19.458C623.232 19.458 625.347 20.2257 626.726 21.761C628.105 23.265 628.794 25.3487 628.794 28.012V47H622.496V28.67C622.496 27.072 622.198 25.944 621.603 25.286C621.039 24.628 620.036 24.299 618.595 24.299C616.339 24.299 614.24 25.004 612.297 26.414V47H605.999V11.656L612.297 11.186V21.761ZM646.47 47.658C642.146 47.658 639.06 46.4987 637.211 44.18C635.362 41.83 634.438 38.2893 634.438 33.558C634.438 24.158 638.386 19.458 646.282 19.458C650.825 19.458 653.927 20.868 655.588 23.688C657.029 26.1007 657.75 29.234 657.75 33.088V34.78H640.548C640.579 37.7253 641.065 39.809 642.005 41.031C642.945 42.2217 644.496 42.817 646.658 42.817C650.136 42.817 651.985 41.5637 652.204 39.057L657.374 39.245C656.873 44.8537 653.238 47.658 646.47 47.658ZM650.089 25.85C649.306 24.816 648.021 24.299 646.235 24.299C644.449 24.299 643.133 24.8003 642.287 25.803C641.472 26.7743 640.94 28.341 640.689 30.503H651.546C651.358 28.4037 650.872 26.8527 650.089 25.85ZM194.972 101.561C194.408 100.057 194.016 98.459 193.797 96.767C193.578 95.075 193.468 92.9287 193.468 90.328C193.468 87.7273 193.656 85.4087 194.032 83.372C194.439 81.304 195.144 79.4553 196.147 77.826C197.15 76.1967 198.56 74.9903 200.377 74.207C202.226 73.4237 204.513 73.032 207.239 73.032C209.965 73.032 212.252 73.4393 214.101 74.254C215.95 75.0373 217.36 76.2437 218.331 77.873C219.334 79.471 220.039 81.304 220.446 83.372C220.853 85.4087 221.057 88.2443 221.057 91.879C221.057 95.5137 220.587 98.6783 219.647 101.373C218.707 104.036 217.046 105.979 214.665 107.201L220.869 109.833L218.331 114.768L205.923 108.611C200.22 108.329 196.57 105.979 194.972 101.561ZM199.86 90.845C199.86 95.1063 200.377 98.2867 201.411 100.386C202.476 102.454 204.419 103.488 207.239 103.488C210.09 103.488 212.033 102.454 213.067 100.386C214.132 98.2867 214.665 95.1063 214.665 90.845C214.665 86.5837 214.132 83.419 213.067 81.351C212.033 79.2517 210.09 78.202 207.239 78.202C204.419 78.202 202.476 79.2517 201.411 81.351C200.377 83.419 199.86 86.5837 199.86 90.845ZM235.919 108.658C230.405 108.658 227.647 105.807 227.647 100.104V81.116H233.945V99.07C233.945 100.699 234.259 101.906 234.885 102.689C235.543 103.441 236.624 103.817 238.128 103.817C240.259 103.817 242.28 102.814 244.191 100.809V81.116H250.489V108H246.4L244.614 104.757C242.17 107.358 239.272 108.658 235.919 108.658ZM268.775 80.458C275.606 80.458 279.021 83.5757 279.021 89.811V108H274.932L273.146 104.71C270.639 107.342 267.71 108.658 264.357 108.658C261.976 108.658 260.158 108 258.905 106.684C257.683 105.337 257.072 103.551 257.072 101.326C257.072 99.07 257.777 97.2527 259.187 95.874C260.597 94.4953 263.229 93.524 267.083 92.96L272.723 92.114V89.858C272.723 86.8187 271.282 85.299 268.399 85.299C265.673 85.299 264.059 86.6777 263.558 89.435L258.67 87.978C259.861 82.9647 263.229 80.458 268.775 80.458ZM266.378 104.052C268.509 104.052 270.624 103.002 272.723 100.903V96.062L268.211 96.861C266.174 97.2057 264.827 97.754 264.169 98.506C263.511 99.258 263.182 100.104 263.182 101.044C263.182 101.984 263.464 102.72 264.028 103.253C264.592 103.786 265.375 104.052 266.378 104.052ZM293.67 108H287.372V72.656L293.67 71.81V108ZM302.519 81.116H308.817V108H302.519V81.116ZM305.668 77.92C303.318 77.92 302.143 76.7137 302.143 74.301C302.143 71.857 303.318 70.635 305.668 70.635C308.08 70.635 309.287 71.857 309.287 74.301C309.287 76.7137 308.08 77.92 305.668 77.92ZM313.67 85.205V81.116H317.994V76.228L324.292 74.63V81.116H329.415V85.205H324.292V100.386C324.292 101.733 324.48 102.689 324.856 103.253C325.263 103.817 325.843 104.099 326.595 104.099C327.378 104.099 328.224 103.974 329.133 103.723L329.932 107.624C328.083 108.313 326.423 108.658 324.95 108.658C323.509 108.658 322.349 108.486 321.472 108.141C320.595 107.796 319.937 107.405 319.498 106.966C319.059 106.496 318.73 105.869 318.511 105.086C318.166 103.989 317.994 102.626 317.994 100.997V85.205H313.67ZM341.981 119.139L336.388 118.293L340.195 108.376L330.372 81.116H336.717L343.156 99.822L348.984 81.116H355.423L341.981 119.139Z" fill="#09427D"/>
<path d="M24.5 73.69H30.892V108H24.5V93.289H11.81V108H5.418V73.69H11.81V88.401H24.5V73.69ZM39.75 81.116H46.048V108H39.75V81.116ZM42.899 77.92C40.549 77.92 39.374 76.7137 39.374 74.301C39.374 71.857 40.549 70.635 42.899 70.635C45.3117 70.635 46.518 71.857 46.518 74.301C46.518 76.7137 45.3117 77.92 42.899 77.92ZM72.6155 96.861C71.8948 97.8637 70.7982 98.6627 69.3255 99.258C67.8528 99.822 66.1138 100.104 64.1085 100.104C62.1345 100.104 60.4895 99.869 59.1735 99.399L57.8575 100.809C57.3248 101.342 57.0585 101.859 57.0585 102.36C57.0585 103.112 57.5755 103.488 58.6095 103.488H68.6205C71.0959 103.488 73.0385 104.162 74.4485 105.509C75.8899 106.856 76.6105 108.439 76.6105 110.256C76.6105 112.073 76.2345 113.515 75.4825 114.58C74.7305 115.645 73.6495 116.429 72.2395 116.93C69.8582 117.776 66.8032 118.199 63.0745 118.199C59.3772 118.199 56.5258 117.745 54.5205 116.836C52.5152 115.959 51.5125 114.439 51.5125 112.277C51.5125 111.243 51.8102 110.303 52.4055 109.457C53.0008 108.642 53.7372 108.016 54.6145 107.577C52.7032 106.982 51.7475 105.587 51.7475 103.394C51.7475 101.953 52.3115 100.621 53.4395 99.399L55.6015 97.143C54.1288 95.451 53.3925 93.1637 53.3925 90.281C53.3925 87.743 54.0818 85.5497 55.4605 83.701C57.0272 81.539 59.8785 80.458 64.0145 80.458C65.8005 80.458 67.3515 80.6773 68.6675 81.116H76.5165V84.829H73.4145C74.2605 86.3643 74.6835 87.978 74.6835 89.67C74.6835 91.3307 74.5269 92.6937 74.2135 93.759C73.9002 94.8243 73.3675 95.8583 72.6155 96.861ZM64.0145 84.641C60.9438 84.641 59.4085 86.521 59.4085 90.281C59.4085 94.041 60.9438 95.921 64.0145 95.921C67.1165 95.921 68.6675 94.041 68.6675 90.281C68.6675 86.521 67.1165 84.641 64.0145 84.641ZM57.2465 110.867C57.2465 111.995 57.7478 112.716 58.7505 113.029C59.7845 113.342 61.4765 113.499 63.8265 113.499C66.1765 113.499 67.8372 113.311 68.8085 112.935C69.8112 112.59 70.3125 111.823 70.3125 110.632C70.3125 108.877 69.0905 108 66.6465 108H58.6095C57.7008 108.815 57.2465 109.77 57.2465 110.867ZM88.3664 82.761C90.9357 81.2257 93.6304 80.458 96.4504 80.458C99.3017 80.458 101.417 81.2257 102.795 82.761C104.174 84.265 104.863 86.3487 104.863 89.012V108H98.5654V89.67C98.5654 88.072 98.2677 86.944 97.6724 86.286C97.1084 85.628 96.1057 85.299 94.6644 85.299C92.4084 85.299 90.3091 86.004 88.3664 87.414V108H82.0684V72.656L88.3664 72.186V82.761ZM122.539 108.658C118.215 108.658 115.129 107.499 113.28 105.18C111.432 102.83 110.507 99.2893 110.507 94.558C110.507 85.158 114.455 80.458 122.351 80.458C126.895 80.458 129.997 81.868 131.657 84.688C133.099 87.1007 133.819 90.234 133.819 94.088V95.78H116.617C116.649 98.7253 117.134 100.809 118.074 102.031C119.014 103.222 120.565 103.817 122.727 103.817C126.205 103.817 128.054 102.564 128.273 100.057L133.443 100.245C132.942 105.854 129.307 108.658 122.539 108.658ZM126.158 86.85C125.375 85.816 124.09 85.299 122.304 85.299C120.518 85.299 119.202 85.8003 118.356 86.803C117.542 87.7743 117.009 89.341 116.758 91.503H127.615C127.427 89.4037 126.942 87.8527 126.158 86.85ZM158.94 100.48C158.94 105.838 155.18 108.517 147.66 108.517C144.37 108.517 141.926 107.812 140.328 106.402C138.73 104.961 137.727 102.877 137.32 100.151L142.208 99.399C142.552 102.407 144.417 103.911 147.801 103.911C151.216 103.911 152.924 102.846 152.924 100.715C152.924 99.8377 152.579 99.1797 151.89 98.741C151.232 98.3023 149.884 97.848 147.848 97.378L145.686 96.861C142.897 96.203 140.892 95.2473 139.67 93.994C138.479 92.7093 137.884 90.8607 137.884 88.448C137.884 83.1213 141.518 80.458 148.788 80.458C151.921 80.458 154.255 81.1787 155.791 82.62C157.357 84.03 158.329 86.098 158.705 88.824L153.817 89.529C153.472 86.5523 151.733 85.064 148.6 85.064C145.498 85.064 143.947 86.1293 143.947 88.26C143.947 89.1373 144.244 89.811 144.84 90.281C145.466 90.7197 146.72 91.1583 148.6 91.597L151.044 92.208C153.832 92.8973 155.838 93.8687 157.06 95.122C158.313 96.344 158.94 98.13 158.94 100.48ZM161.379 85.205V81.116H165.703V76.228L172.001 74.63V81.116H177.124V85.205H172.001V100.386C172.001 101.733 172.189 102.689 172.565 103.253C172.972 103.817 173.552 104.099 174.304 104.099C175.087 104.099 175.933 103.974 176.842 103.723L177.641 107.624C175.792 108.313 174.132 108.658 172.659 108.658C171.218 108.658 170.058 108.486 169.181 108.141C168.304 107.796 167.646 107.405 167.207 106.966C166.768 106.496 166.439 105.869 166.22 105.086C165.875 103.989 165.703 102.626 165.703 100.997V85.205H161.379Z" fill="url(#paint0_linear_21_22)"/>
<defs>
<linearGradient id="paint0_linear_21_22" x1="221.886" y1="87" x2="221.549" y2="115.005" gradientUnits="userSpaceOnUse">
<stop stop-color="#8C0075" stop-opacity="0.9"/>
<stop offset="1" stop-color="#640354"/>
</linearGradient>
</defs>
</svg>
